<?xml version="1.0" standalone="no"?>
<!DOCTYPE svg PUBLIC "-//W3C//DTD SVG 20010904//EN"
 "http://www.w3.org/TR/2001/REC-SVG-20010904/DTD/svg10.dtd">
<svg version="1.0" xmlns="http://www.w3.org/2000/svg"
 width="292.000000pt" height="292.000000pt" viewBox="0 0 292.000000 292.000000"
 preserveAspectRatio="xMidYMid meet">

<g transform="translate(0.000000,292.000000) scale(0.100000,-0.100000)"
fill="#000000" stroke="none">
<path d="M1242 2878 c-213 -26 -473 -134 -656 -272 -216 -162 -373 -369 -470
-621 -97 -253 -132 -573 -81 -755 8 -30 12 -39 9 -20 -13 86 -16 366 -4 439
55 352 230 656 504 877 413 333 977 415 1472 214 415 -169 722 -519 840 -956
36 -135 46 -412 19 -561 -97 -544 -524 -989 -1071 -1119 -161 -37 -324 -50
-468 -36 -575 57 -1035 406 -1233 937 -18 50 -31 74 -27 55 20 -114 137 -344
250 -491 120 -157 296 -299 490 -397 411 -207 913 -200 1323 18 158 83 229
136 352 260 152 154 237 288 329 517 111 276 119 632 19 933 -39 120 -113 273
-180 374 -69 105 -228 268 -336 346 -172 123 -420 223 -633 255 -104 16 -333
18 -448 3z"/>
<path d="M1436 2812 l-29 -4 6 -74 c4 -41 5 -74 4 -74 -2 0 -25 32 -51 70 -44
64 -51 70 -83 70 l-35 0 6 -107 c10 -168 12 -173 47 -173 l31 0 -4 70 c-2 39
-1 70 2 70 3 -1 25 -30 50 -65 40 -58 49 -65 79 -65 l33 0 -7 128 c-4 70 -10
134 -14 142 -4 10 -16 14 -35 12z"/>
<path d="M1635 2786 c-100 -45 -124 -188 -41 -251 43 -32 110 -42 158 -22 32
13 37 21 47 68 6 28 9 55 5 58 -3 3 -32 11 -64 17 -57 10 -59 10 -65 -13 -7
-31 1 -43 31 -43 31 0 31 -17 0 -31 -18 -9 -30 -7 -55 5 -28 15 -31 21 -31 66
0 55 24 90 61 90 29 0 59 -18 59 -35 0 -10 11 -15 35 -15 30 0 35 3 35 23 -1
62 -107 113 -175 83z"/>
<path d="M1029 2739 c-24 -9 -27 -16 -33 -86 -3 -42 -6 -102 -6 -133 0 -31 -3
-59 -6 -63 -3 -3 -55 30 -114 74 -108 79 -109 80 -135 63 -30 -20 -30 -22 -5
-154 21 -112 24 -137 13 -126 -4 3 -28 -15 -55 -41 l-48 -47 -56 54 c-109 106
-101 101 -129 70 -19 -21 -18 -22 80 -120 l99 -99 94 97 c82 85 93 100 88 125
-5 23 0 31 35 52 l40 26 25 -20 26 -20 37 22 c20 12 46 27 56 33 12 6 21 24
23 41 3 26 9 32 44 42 37 11 42 11 63 -9 18 -17 30 -20 54 -15 17 4 31 10 31
15 0 10 -178 224 -188 227 -4 1 -19 -3 -33 -8z m61 -149 c-25 -16 -30 -12 -30
22 l0 32 23 -22 c19 -19 20 -24 7 -32z m-270 -105 c14 -16 6 -35 -16 -35 -8 0
-14 10 -14 25 0 28 12 32 30 10z"/>
<path d="M1994 2598 c-20 -40 -50 -94 -65 -120 l-28 -47 73 -41 c90 -49 134
-53 166 -13 16 21 20 37 17 60 -4 25 -2 33 13 38 10 3 24 20 31 37 10 26 10
35 -2 56 -13 25 -131 101 -155 102 -6 0 -29 -33 -50 -72z m131 -42 c16 -12 17
-17 8 -27 -10 -10 -20 -9 -48 4 -31 15 -34 20 -25 37 11 21 22 19 65 -14z
m-64 -83 c29 -17 38 -46 19 -58 -5 -3 -27 3 -50 15 -36 18 -39 22 -28 40 16
24 22 25 59 3z"/>
<path d="M1290 2445 c-561 -98 -937 -609 -845 -1151 36 -212 132 -391 291
-545 134 -128 287 -216 449 -258 576 -149 1145 185 1282 751 26 107 24 345 -5
450 -68 249 -212 451 -422 590 -222 148 -496 207 -750 163z m369 -51 c290 -52
554 -251 688 -519 125 -249 133 -531 23 -787 -47 -110 -104 -194 -194 -286
-129 -133 -275 -220 -453 -270 -89 -24 -114 -27 -263 -27 -149 0 -175 3 -262
27 -542 152 -843 693 -676 1218 74 233 260 445 493 560 201 100 403 126 644
84z"/>
<path d="M1315 2310 c-52 -8 -222 -52 -267 -69 -38 -14 -42 -27 -20 -74 11
-23 43 -96 72 -162 29 -66 74 -167 100 -225 26 -58 44 -106 41 -108 -3 -1 -67
14 -141 33 -359 92 -429 109 -435 103 -18 -18 -55 -146 -71 -242 -15 -92 -16
-122 -6 -204 11 -97 68 -283 94 -308 10 -10 41 -2 148 38 165 61 381 139 395
141 15 3 14 1 -95 -258 -56 -132 -104 -247 -107 -256 -8 -28 140 -100 273
-134 93 -23 276 -20 377 6 93 23 227 82 227 99 0 6 -23 68 -51 138 -81 204
-151 393 -146 398 3 4 93 -31 182 -72 17 -7 108 -47 203 -88 l172 -75 19 37
c105 209 121 511 39 739 -13 36 -3 36 -138 3 -41 -11 -147 -35 -235 -55 -88
-20 -170 -41 -183 -46 -13 -5 -27 -7 -32 -4 -5 3 36 99 92 213 146 304 142
293 126 304 -33 22 -138 72 -188 90 -122 43 -309 59 -445 38z m224 -80 c1 12
9 15 36 12 19 -2 35 -8 35 -14 0 -5 5 -6 10 -3 6 3 10 2 10 -4 0 -5 -6 -12
-12 -15 -7 -3 -1 -4 15 -2 15 2 27 0 27 -4 0 -9 41 -18 58 -12 7 2 10 8 7 12
-7 12 57 -9 70 -23 7 -7 4 -8 -7 -4 -20 7 -25 -8 -7 -19 8 -4 8 -8 0 -13 -6
-4 -3 -11 9 -19 17 -10 20 -10 20 3 0 9 6 12 16 8 9 -3 20 0 25 8 6 9 9 10 9
2 0 -7 -39 -94 -86 -195 -47 -101 -104 -222 -126 -269 l-40 -85 -69 -2 c-38
-1 -77 -7 -87 -12 -46 -26 -146 -61 -159 -55 -12 4 -10 9 10 25 14 11 34 20
45 20 18 0 13 18 -54 173 -41 94 -78 181 -84 192 -46 100 -60 140 -55 159 5
17 4 18 -4 6 -9 -12 -11 -11 -11 8 0 12 -4 22 -10 22 -5 0 -10 7 -10 16 0 14
1 14 16 0 8 -9 21 -16 28 -16 17 0 12 50 -6 61 -7 5 -8 9 -3 9 6 0 20 3 33 6
13 4 22 2 22 -5 0 -5 -8 -8 -17 -5 -17 5 -17 5 -1 -6 11 -7 32 -8 55 -4 21 5
46 7 56 5 19 -3 53 26 43 37 -4 3 -11 0 -16 -7 -9 -16 -97 -24 -105 -10 -3 4
13 7 37 5 24 -2 47 2 54 9 15 15 134 20 134 5 0 -16 46 -12 61 6 12 14 14 14
20 -3 6 -13 8 -14 8 -3z m-399 -44 c0 -2 -7 -7 -16 -10 -8 -3 -12 -2 -9 4 6
10 25 14 25 6z m20 -26 c0 -5 -2 -10 -4 -10 -3 0 -8 5 -11 10 -3 6 -1 10 4 10
6 0 11 -4 11 -10z m-368 -445 c35 -9 133 -35 218 -58 117 -32 146 -43 120 -45
-37 -3 -74 -17 -101 -39 -24 -20 -50 -6 -43 22 5 21 1 25 -33 31 -21 4 -48 13
-60 21 -16 11 -23 11 -29 2 -5 -9 -11 -7 -21 7 -12 17 -15 16 -41 -15 -24 -29
-30 -31 -54 -22 -14 5 -29 14 -32 20 -4 6 -13 8 -21 4 -8 -3 -15 -2 -15 1 0
15 33 86 40 86 5 0 37 -7 72 -15z m1477 -77 c1 -27 6 -48 11 -48 6 0 10 -4 10
-9 0 -11 -44 -5 -71 9 -26 15 -77 12 -114 -6 -31 -14 -36 -14 -74 5 -22 12
-57 21 -78 21 -67 0 -203 -29 -243 -51 -37 -21 -70 -21 -70 0 0 11 60 29 200
61 52 11 142 32 200 46 138 34 140 34 173 36 15 1 31 6 34 11 10 16 22 -23 22
-75z m-1420 -90 c0 -16 -3 -28 -8 -28 -12 0 -17 35 -12 80 l5 35 7 -30 c4 -16
7 -42 8 -57z m1119 43 c10 -6 7 -12 -13 -25 -18 -12 -25 -24 -22 -36 4 -14 -2
-19 -27 -23 -37 -5 -34 -7 -36 18 -5 47 0 64 23 68 38 7 62 7 75 -2z m-1178
-76 c0 -61 -5 -65 -82 -65 l-50 0 4 58 c3 65 10 69 84 64 l44 -4 0 -53z m1047
43 c0 -13 3 -31 7 -40 5 -12 4 -18 -4 -18 -7 0 -27 -7 -45 -16 -18 -8 -46 -14
-62 -12 l-28 4 28 14 c26 13 39 37 15 27 -46 -17 -54 -17 -55 2 -2 25 55 50
133 60 7 0 12 -9 11 -21z m253 -14 c50 -33 58 -54 29 -77 -18 -14 -20 -20 -10
-30 10 -9 16 -7 31 11 10 12 21 22 24 22 3 0 6 -30 6 -68 0 -45 5 -75 16 -90
18 -26 12 -29 -12 -5 -21 21 -60 27 -42 6 6 -7 8 -16 4 -20 -3 -3 -6 -1 -6 5
0 7 -3 11 -7 11 -20 -3 -22 3 -7 25 14 23 14 28 -1 59 -9 19 -27 45 -40 57
-19 18 -22 27 -14 53 5 17 7 33 4 35 -10 10 -36 -23 -32 -40 6 -21 5 -21 -28
-6 -17 8 -25 19 -25 38 0 56 39 61 110 14z m-1200 22 c0 -11 -19 -15 -25 -6
-3 5 1 10 9 10 9 0 16 -2 16 -4z m1342 -19 c7 -7 25 -18 41 -24 20 -9 27 -20
27 -40 0 -42 -11 -52 -58 -51 -38 0 -44 4 -56 32 -8 17 -26 43 -40 58 l-26 27
23 4 c45 9 76 7 89 -6z m-1219 -26 c8 -8 -68 -40 -115 -48 -31 -5 -29 15 4 42
26 20 40 25 67 21 19 -3 38 -9 44 -15z m-157 -60 c-14 -23 52 -20 119 5 39 15
90 29 115 31 25 3 49 9 55 14 5 5 20 9 33 9 24 0 25 -2 19 -49 -4 -34 -1 -55
9 -69 25 -36 -12 -47 -161 -47 -104 0 -136 4 -162 17 -42 24 -69 64 -78 118
l-7 45 32 -32 c17 -18 29 -37 26 -42z m468 43 c40 -14 46 -19 40 -37 -4 -12
-12 -27 -19 -33 -16 -16 -87 -54 -101 -54 -14 0 -24 32 -24 77 0 67 19 76 104
47z m212 -5 c15 -17 16 -23 5 -27 -10 -3 -10 -6 -2 -12 9 -5 8 -10 -4 -20 -11
-9 -15 -9 -15 -1 0 7 -5 9 -11 6 -5 -4 -37 -4 -70 0 -52 6 -59 10 -59 29 0 27
32 43 91 45 35 1 50 -4 65 -20z m139 2 c3 -5 -4 -13 -16 -16 -23 -8 -34 -1
-24 14 8 13 32 14 40 2z m343 -30 c17 -7 32 -17 32 -21 0 -25 -125 -16 -169
12 -17 10 -26 10 -51 -6 -25 -14 -48 -17 -113 -15 -97 3 -114 7 -121 24 -3 10
4 11 32 4 54 -12 140 -11 165 3 48 27 156 26 225 -1z m-1177 -86 c32 -26 87
-45 134 -45 21 0 26 -3 18 -11 -14 -14 -106 -6 -158 14 -32 12 -43 13 -60 2
-34 -22 -65 -27 -81 -14 -12 9 -12 15 -2 27 11 13 10 14 -9 4 -19 -11 -22 -10
-20 8 1 14 9 20 27 21 45 2 82 8 88 13 12 12 35 5 63 -19z m612 -1 c41 -4 78
-2 95 5 22 9 42 8 96 -4 37 -9 82 -13 99 -11 18 3 105 3 195 -1 125 -5 162 -9
162 -19 0 -27 -43 -42 -110 -38 -36 2 -132 7 -215 11 -82 5 -159 13 -170 20
-15 9 -21 8 -30 -3 -7 -10 -36 -15 -95 -17 -97 -4 -120 0 -120 19 0 12 -6 12
-36 -1 -20 -8 -57 -15 -82 -15 -44 0 -45 1 -29 17 28 28 99 52 137 47 19 -3
65 -7 103 -10z m804 -16 c35 -13 47 -40 13 -31 -11 3 -20 9 -20 14 0 5 -14 6
-30 2 -25 -5 -29 -3 -24 11 7 19 17 20 61 4z m-1152 -88 c0 -14 -49 -34 -253
-105 l-123 -43 -16 32 c-9 17 -19 46 -23 63 -7 31 -6 33 29 40 42 8 92 8 213
-2 79 -7 90 -5 120 14 35 22 53 23 53 1z m360 -18 c33 -4 77 -5 98 -1 38 6 39
6 59 -40 11 -25 24 -57 28 -71 5 -14 18 -50 29 -80 12 -30 21 -56 21 -58 0 -2
-15 12 -34 30 -19 18 -46 43 -62 54 -25 19 -27 24 -17 47 14 29 7 39 -42 57
-39 15 -145 14 -180 -2 -23 -10 -26 -17 -22 -44 5 -27 -1 -37 -44 -80 -55 -54
-79 -98 -79 -143 0 -32 31 -104 50 -116 6 -4 7 -12 4 -18 -4 -7 -4 -9 0 -5 5
4 25 -2 44 -13 20 -10 42 -19 49 -19 18 0 16 -10 -4 -27 -10 -8 -13 -12 -6 -9
6 4 14 -2 16 -11 4 -14 5 -13 6 4 1 22 4 22 96 20 52 -2 95 1 95 5 0 4 5 8 12
8 25 0 80 54 104 103 22 42 25 60 21 101 l-6 51 30 -75 c52 -129 81 -212 76
-216 -8 -8 -121 -46 -141 -47 -12 0 -24 -6 -28 -12 -12 -17 -299 -13 -332 5
-25 13 -26 15 -9 21 30 13 46 10 39 -6 -7 -19 1 -19 19 -1 12 12 10 15 -13 24
-15 6 -40 13 -56 17 -26 6 -28 4 -24 -20 5 -22 3 -25 -16 -19 -11 3 -32 16
-45 28 -13 11 -21 15 -17 9 9 -17 3 -16 -39 1 -33 14 -34 16 -24 45 6 17 15
31 21 31 5 0 7 4 3 9 -5 9 -1 20 45 126 13 28 37 88 56 135 18 47 46 115 63
152 30 65 32 67 64 62 17 -3 59 -8 92 -12z m479 -13 c16 -5 46 -9 67 -9 21 0
41 -5 44 -11 4 -6 13 -8 21 -5 7 3 16 1 19 -4 3 -5 12 -7 19 -4 7 3 22 -3 32
-13 14 -14 17 -14 12 -2 -6 17 23 33 80 43 26 4 32 2 31 -12 -1 -22 -27 -91
-28 -74 -1 6 -6 12 -12 12 -6 0 -9 -7 -5 -15 3 -10 -1 -15 -14 -15 -13 0 -18
-6 -15 -19 4 -23 23 -29 -207 65 -89 37 -167 70 -171 74 -11 10 90 1 127 -11z"/>
<path d="M1378 2223 c7 -3 16 -2 19 1 4 3 -2 6 -13 5 -11 0 -14 -3 -6 -6z"/>
<path d="M1431 2223 c-1 -7 -7 -13 -15 -13 -8 0 -17 -4 -20 -8 -2 -4 7 -8 22
-7 26 0 29 3 19 28 -4 9 -6 9 -6 0z"/>
<path d="M1238 2153 c7 -3 16 -2 19 1 4 3 -2 6 -13 5 -11 0 -14 -3 -6 -6z"/>
<path d="M1397 2106 c-50 -25 -97 -63 -97 -79 0 -5 -9 -20 -20 -34 -23 -30
-25 -63 -6 -118 15 -43 76 -113 116 -133 14 -7 32 -27 40 -45 14 -30 19 -32
65 -33 57 0 95 13 95 33 0 22 32 64 56 73 14 6 25 21 29 40 4 17 13 43 21 58
18 34 17 82 0 105 -8 10 -12 26 -10 35 6 23 -31 81 -59 91 -26 10 -84 21 -142
27 -29 3 -54 -3 -88 -20z m168 -21 c42 -10 67 -23 84 -42 l24 -28 -21 -3 c-29
-4 -28 -16 3 -36 19 -12 25 -25 25 -51 0 -44 -12 -50 -40 -20 -13 14 -32 25
-42 25 -23 0 -24 -17 0 -24 42 -14 71 -116 33 -116 -11 0 -23 5 -27 11 -4 8
-9 8 -18 -1 -8 -8 -8 -13 2 -19 10 -6 9 -14 -5 -39 -15 -27 -25 -32 -71 -38
-62 -7 -78 2 -68 41 4 17 17 30 36 37 38 13 39 28 2 28 -17 0 -38 -10 -51 -24
-19 -20 -26 -22 -46 -12 -35 16 -38 33 -14 67 16 23 28 29 59 29 41 0 61 14
34 24 -36 14 -74 6 -99 -21 -14 -15 -25 -31 -25 -35 0 -18 -21 -6 -32 17 -15
32 2 53 51 60 20 3 51 13 69 20 37 17 45 41 10 30 -13 -3 -43 -11 -68 -16 -24
-5 -49 -14 -54 -19 -16 -16 -36 -11 -36 9 0 19 26 48 35 39 9 -8 168 47 173
60 5 17 -44 15 -72 -3 -13 -9 -41 -18 -62 -20 l-38 -5 23 24 c31 33 98 65 136
65 17 0 57 -6 90 -14z"/>
<path d="M1030 1433 c-20 -2 -49 -15 -65 -29 -22 -19 -25 -24 -10 -19 17 6 74
15 110 17 6 1 20 -2 33 -6 19 -6 22 -4 22 18 0 28 -3 28 -90 19z"/>
<path d="M1277 1494 c-14 -14 -7 -25 13 -22 12 2 21 8 21 13 0 12 -24 18 -34
9z"/>
<path d="M1292 768 c5 -15 28 -23 28 -10 0 5 -7 13 -16 16 -10 4 -14 1 -12 -6z"/>
<path d="M1134 759 c-3 -6 -1 -16 4 -21 8 -8 11 -5 9 11 -1 24 -3 25 -13 10z"/>
<path d="M1451 694 c0 -11 3 -14 6 -6 3 7 2 16 -1 19 -3 4 -6 -2 -5 -13z"/>
<path d="M1418 693 c-10 -2 -18 -8 -18 -13 0 -5 -8 -11 -17 -13 -17 -4 -17 -5
0 -6 10 0 27 8 39 19 12 11 20 19 17 19 -2 -1 -12 -3 -21 -6z"/>
<path d="M2225 1190 c3 -5 10 -10 16 -10 5 0 9 5 9 10 0 6 -7 10 -16 10 -8 0
-12 -4 -9 -10z"/>
<path d="M2243 2372 l-133 -56 26 -27 c25 -26 29 -27 54 -14 26 13 29 12 60
-20 31 -32 32 -36 20 -65 -12 -28 -11 -33 10 -55 13 -13 26 -23 30 -20 3 2 33
63 65 135 l58 131 -23 24 c-13 14 -26 25 -29 24 -3 0 -66 -26 -138 -57z m85
-57 c-13 -28 -19 -30 -36 -13 -10 10 -7 15 10 25 34 18 39 16 26 -12z"/>
<path d="M2447 2176 c-132 -77 -131 -76 -116 -109 7 -15 15 -27 18 -27 3 0 24
11 46 25 22 13 43 25 46 25 19 1 16 -37 -6 -80 -29 -58 -30 -69 -10 -107 9
-15 20 -40 25 -55 7 -22 16 -28 39 -28 26 0 31 -5 40 -37 15 -53 14 -61 -10
-74 -18 -9 -20 -17 -16 -46 4 -20 8 -38 11 -40 2 -2 57 37 121 88 106 84 116
94 110 118 -4 14 -10 29 -14 34 -4 4 -61 12 -127 18 -65 6 -125 12 -132 14
-11 4 -8 15 34 103 1 1 13 -2 27 -7 18 -7 36 -7 57 0 63 22 65 74 9 175 -22
41 -41 74 -42 73 -1 0 -50 -28 -110 -63z m113 -65 c17 -33 17 -41 5 -51 -18
-15 -31 -7 -51 32 -14 28 -14 31 3 44 10 7 19 14 20 14 2 0 12 -18 23 -39z
m64 -322 c-19 -21 -34 -16 -34 10 0 14 6 17 25 13 24 -4 25 -5 9 -23z"/>
<path d="M307 2141 l-18 -30 93 -116 c93 -116 93 -116 110 -95 22 27 23 44 3
60 -20 17 -19 32 6 75 19 32 25 35 53 30 27 -6 33 -2 49 25 11 17 17 33 15 35
-1 1 -55 10 -118 19 -63 9 -128 19 -145 22 -26 4 -33 1 -48 -25z m132 -60 c9
-6 10 -14 4 -25 -8 -15 -12 -14 -33 9 -22 23 -22 25 -4 25 10 0 25 -4 33 -9z"/>
<path d="M200 1914 c-13 -34 -9 -39 44 -53 l44 -11 -10 -40 c-11 -44 -23 -48
-77 -29 -37 13 -37 13 -45 -27 l-7 -30 132 -38 c140 -40 148 -40 149 11 0 17
-9 23 -51 33 l-51 12 7 37 c4 20 10 39 14 44 4 4 29 1 56 -8 27 -8 51 -13 52
-11 2 2 8 17 13 34 8 30 7 32 -28 42 -20 5 -77 21 -127 35 -49 13 -93 25 -98
25 -4 0 -12 -12 -17 -26z"/>
<path d="M265 1587 l-140 -53 0 -34 c0 -34 0 -34 130 -91 72 -32 133 -58 138
-58 4 -1 7 15 7 34 0 28 -5 37 -31 50 -27 15 -30 20 -27 58 3 37 7 44 36 56
28 13 32 19 32 53 0 21 -1 38 -2 38 -2 -1 -66 -24 -143 -53z m15 -91 c0 -23
-2 -24 -31 -13 l-30 12 28 12 c15 7 29 12 31 13 1 0 2 -11 2 -24z"/>
<path d="M2615 1611 l-100 -6 0 -30 0 -30 73 1 c39 1 72 0 72 -2 0 -2 -31 -25
-70 -50 -63 -43 -70 -50 -70 -80 0 -33 1 -34 43 -34 23 0 86 3 140 7 l97 6 0
33 0 32 -75 -5 c-41 -3 -75 -4 -75 -1 0 3 29 24 64 46 78 51 86 60 79 95 -5
24 -9 27 -42 25 -20 -1 -81 -4 -136 -7z"/>
<path d="M270 1314 c-52 -13 -105 -26 -118 -29 -18 -4 -21 -10 -16 -33 14 -61
11 -59 91 -67 l76 -7 -63 -34 c-34 -18 -64 -35 -67 -38 -2 -2 1 -22 7 -45 7
-28 16 -41 28 -41 9 1 69 13 132 29 114 27 115 27 113 55 -1 16 -4 30 -6 33
-3 2 -31 -3 -63 -11 -32 -8 -60 -13 -62 -11 -2 2 24 18 58 35 45 23 60 35 56
46 -3 9 -6 22 -6 30 0 10 -14 14 -54 14 -65 0 -82 15 -28 24 68 13 71 14 63
44 -9 35 -24 36 -141 6z"/>
<path d="M2544 1301 c-54 -33 -80 -127 -55 -194 11 -28 21 -33 82 -42 l45 -7
12 58 c13 64 10 74 -23 74 -16 0 -25 -7 -29 -25 -8 -30 -22 -32 -31 -5 -8 25
3 61 24 77 38 29 126 2 137 -42 7 -29 -18 -75 -41 -75 -10 0 -15 -11 -15 -35
0 -31 3 -35 26 -35 57 0 105 86 90 163 -16 86 -143 136 -222 88z"/>
<path d="M52 1155 c0 -11 3 -29 8 -40 11 -25 11 1 0 35 -6 20 -8 21 -8 5z"/>
<path d="M2438 1056 c-16 -32 -15 -34 5 -54 l21 -22 -22 -45 c-20 -41 -24 -44
-51 -39 -26 5 -32 2 -46 -26 -9 -17 -15 -33 -13 -35 2 -2 68 -10 146 -17 141
-14 144 -13 158 6 8 11 14 27 14 34 0 11 -186 232 -195 232 0 0 -9 -15 -17
-34z m97 -156 c18 -19 17 -20 -7 -20 -30 0 -38 7 -31 26 7 19 17 18 38 -6z"/>
<path d="M372 953 c-94 -117 -101 -134 -67 -163 12 -10 43 -9 147 5 73 10 137
21 141 25 4 4 2 19 -5 34 -10 24 -16 27 -44 23 -30 -5 -35 -2 -58 36 l-24 42
20 22 c18 20 19 26 8 53 -7 17 -15 32 -19 34 -3 2 -48 -48 -99 -111z m62 -69
c8 -20 8 -19 -27 -28 -28 -7 -28 -7 -11 19 19 29 29 32 38 9z"/>
<path d="M2265 773 l-18 -27 42 -35 c34 -30 46 -51 71 -125 16 -49 32 -91 34
-93 2 -2 14 10 26 27 21 29 21 32 6 77 -9 26 -16 49 -16 51 0 2 24 1 53 -2 49
-6 54 -5 80 22 l28 30 -33 5 c-18 4 -58 9 -88 13 -64 8 -96 22 -129 58 -30 32
-35 32 -56 -1z"/>
<path d="M484 730 c-28 -11 -64 -58 -64 -82 0 -30 25 -69 73 -116 l44 -43 96
92 c54 50 97 95 97 99 0 4 -8 17 -17 29 l-18 22 -38 -32 -37 -31 -36 31 c-19
17 -39 31 -44 31 -4 0 -14 2 -22 4 -7 3 -23 1 -34 -4z m71 -90 c18 -20 18 -21
-1 -41 -20 -19 -20 -19 -43 5 -26 28 -22 56 7 56 10 0 27 -9 37 -20z"/>
<path d="M2112 588 c-20 -20 -14 -66 9 -79 33 -17 69 3 69 39 0 33 -16 52 -45
52 -12 0 -26 -5 -33 -12z"/>
<path d="M756 574 c-30 -30 -9 -84 33 -84 21 0 51 30 51 52 0 19 -32 48 -53
48 -8 0 -23 -7 -31 -16z"/>
<path d="M902 478 c-11 -24 -42 -80 -67 -125 l-46 -82 82 -40 c93 -46 125 -50
163 -20 20 16 26 29 26 61 0 31 6 45 25 60 33 26 34 76 3 105 -23 21 -140 83
-156 83 -4 0 -18 -19 -30 -42z m138 -93 c0 -18 -29 -19 -65 -3 -26 12 -29 17
-19 42 5 14 11 13 45 -4 21 -11 39 -27 39 -35z m-82 -65 c55 -34 33 -75 -28
-50 -38 16 -44 25 -30 50 13 25 17 25 58 0z"/>
<path d="M1928 502 c-16 -9 -28 -23 -28 -32 0 -41 55 -280 64 -280 27 1 51 32
51 66 0 30 5 38 38 56 36 21 38 22 67 4 29 -16 31 -16 60 1 17 9 30 20 30 23
-1 3 -46 37 -102 75 -167 115 -149 106 -180 87z m102 -124 c0 -4 -9 -12 -19
-17 -15 -9 -20 -7 -25 12 -11 43 -8 49 19 30 13 -10 25 -21 25 -25z"/>
<path d="M1798 443 c-22 -6 -22 -4 1 -86 11 -37 17 -67 14 -67 -3 0 -34 27
-70 60 -55 52 -68 59 -91 54 -15 -4 -30 -8 -33 -10 -6 -4 64 -260 74 -270 9
-9 57 8 57 20 0 7 -7 36 -16 65 -8 29 -13 55 -10 58 3 3 33 -20 68 -51 55 -50
66 -56 93 -50 16 3 31 7 33 9 1 1 -14 64 -34 139 -38 140 -39 142 -86 129z"/>
<path d="M1122 290 c-46 -66 -81 -124 -78 -129 3 -5 19 -11 36 -13 25 -4 34 0
47 23 14 24 21 27 52 22 53 -8 69 -20 73 -50 2 -21 10 -29 37 -35 18 -5 36 -7
38 -4 9 9 -48 290 -61 298 -6 4 -22 8 -36 8 -22 0 -39 -19 -108 -120z m108
-20 c0 -23 -3 -27 -20 -23 -23 6 -25 16 -8 42 16 26 28 17 28 -19z"/>
<path d="M1451 390 c-18 -4 -47 -22 -64 -39 -27 -26 -31 -39 -35 -93 -2 -49 1
-70 16 -94 36 -56 117 -78 193 -53 58 20 69 36 69 101 l0 58 -70 0 -70 0 0
-36 c0 -33 2 -35 28 -34 41 3 45 1 33 -14 -20 -24 -69 -30 -96 -12 -40 26 -45
104 -9 141 22 21 71 19 91 -5 17 -19 55 -19 77 1 11 10 -17 55 -41 67 -29 15
-86 20 -122 12z"/>
</g>
</svg>
